<svg width="512" height="512" viewBox="0 0 512 512" fill="none" xmlns="http://www.w3.org/2000/svg">
<g id="Shards logo">
<g id="Shads logo">
<g id="Vector 5">
<mask id="path-1-inside-1_4_125" fill="white">
<path d="M142.472 170L318 1L315.76 13.4265L309.656 47.2886L301.312 93.5772L184.5 170H142.472Z"/>
</mask>
<path d="M142.472 170L318 1L315.76 13.4265L309.656 47.2886L301.312 93.5772L184.5 170H142.472Z" fill="#3CE78E"/>
<path d="M185.398 170.441L208.266 123.841L206.47 122.96L183.602 169.559L185.398 170.441ZM206.785 122.588L141.889 169.188L143.055 170.812L207.951 124.213L206.785 122.588ZM309.059 46.4863L206.771 122.598L207.965 124.203L310.253 48.0909L309.059 46.4863ZM207.671 124.354L301.615 94.5303L301.01 92.6241L207.065 122.448L207.671 124.354ZM315.048 12.7245L206.656 122.699L208.08 124.103L316.472 14.1284L315.048 12.7245ZM318 1L319.968 1.35479L321.065 -4.7269L316.613 -0.44075L318 1ZM142.472 170L141.085 168.559L137.511 172H142.472V170ZM184.5 170V172H185.096L185.595 171.674L184.5 170ZM301.312 93.5772L302.407 95.2508L303.128 94.7794L303.281 93.932L301.312 93.5772ZM309.656 47.2886L307.688 46.9338L307.688 46.9338L309.656 47.2886ZM315.76 13.4265L317.728 13.7813L317.728 13.7813L315.76 13.4265ZM316.613 -0.44075L141.085 168.559L143.859 171.441L319.387 2.44075L316.613 -0.44075ZM142.472 172H184.5V168H142.472V172ZM185.595 171.674L302.407 95.2508L300.218 91.9036L183.405 168.326L185.595 171.674ZM303.281 93.932L311.625 47.6434L307.688 46.9338L299.344 93.2224L303.281 93.932ZM311.625 47.6434L317.728 13.7813L313.792 13.0717L307.688 46.9338L311.625 47.6434ZM317.728 13.7813L319.968 1.35479L316.032 0.645209L313.792 13.0717L317.728 13.7813Z" fill="#26A061" mask="url(#path-1-inside-1_4_125)"/>
</g>
<g id="Vector 6">
<mask id="path-3-inside-2_4_125" fill="white">
<path d="M186.47 209L255 316.569V325.174V343L238.165 328.862L207.461 303.078L166.713 268.859L113 223.619L159.922 214.197L186.47 209Z"/>
</mask>
<path d="M186.47 209L255 316.569V325.174V343L238.165 328.862L207.461 303.078L166.713 268.859L113 223.619L159.922 214.197L186.47 209Z" fill="#3CE78E"/>
<path d="M243.887 320.872L244.248 319.939L243.525 319.659L243.074 320.289L243.887 320.872ZM185.487 208.814L179.313 241.392L181.278 241.764L187.452 209.186L185.487 208.814ZM181.098 240.981L160.724 213.6L159.119 214.794L179.493 242.175L181.098 240.981ZM179.381 241.982L191.431 269.263L193.261 268.455L181.21 241.174L179.381 241.982ZM191.431 269.263L206.546 303.482L208.376 302.674L193.261 268.455L191.431 269.263ZM166.713 269.859H192.346V267.859H166.713V269.859ZM255.606 315.773L192.952 268.063L191.74 269.655L254.394 317.364L255.606 315.773ZM238.978 329.445L244.7 321.454L243.074 320.289L237.352 328.28L238.978 329.445ZM243.526 321.804L254.639 326.107L255.361 324.242L244.248 319.939L243.526 321.804ZM255 316.569H257V315.986L256.687 315.494L255 316.569ZM186.47 209L188.156 207.925L187.424 206.775L186.085 207.037L186.47 209ZM159.922 214.197L159.537 212.235L159.528 212.237L159.922 214.197ZM113 223.619L112.606 221.658L108.537 222.475L111.712 225.149L113 223.619ZM166.713 268.859L165.425 270.389L165.427 270.391L166.713 268.859ZM207.461 303.078L208.747 301.546L207.461 303.078ZM238.165 328.862L236.879 330.394L236.879 330.394L238.165 328.862ZM255 343L253.714 344.532L257 347.291V343H255ZM256.687 315.494L188.156 207.925L184.783 210.075L253.313 317.643L256.687 315.494ZM186.085 207.037L159.537 212.235L160.306 216.16L186.854 210.963L186.085 207.037ZM159.528 212.237L112.606 221.658L113.394 225.58L160.315 216.158L159.528 212.237ZM111.712 225.149L165.425 270.389L168.001 267.329L114.288 222.089L111.712 225.149ZM165.427 270.391L206.175 304.61L208.747 301.546L167.999 267.327L165.427 270.391ZM206.175 304.61L236.879 330.394L239.451 327.331L208.747 301.546L206.175 304.61ZM236.879 330.394L253.714 344.532L256.286 341.468L239.451 327.331L236.879 330.394ZM257 343V325.174H253V343H257ZM257 325.174V316.569H253V325.174H257Z" fill="#26A061" mask="url(#path-3-inside-2_4_125)"/>
</g>
<g id="Vector 7">
<mask id="path-5-inside-3_4_125" fill="white">
<path d="M262 192.058V163L279.365 179.693L324.386 222.971L417 312L337.625 305.817L277.618 215.552L262 192.058Z"/>
</mask>
<path d="M262 192.058V163L279.365 179.693L324.386 222.971L417 312L337.625 305.817L277.618 215.552L262 192.058Z" fill="#3CE78E"/>
<path d="M277.618 215.552L276.619 215.503L276.595 215.998L276.975 216.317L277.618 215.552ZM278.366 179.644L276.619 215.503L278.617 215.601L280.364 179.742L278.366 179.644ZM340.769 267.338L278.262 214.786L276.975 216.317L339.481 268.869L340.769 267.338ZM323.442 223.3L339.181 268.433L341.069 267.774L325.33 222.642L323.442 223.3ZM339.127 268.038L336.627 305.751L338.623 305.884L341.123 268.17L339.127 268.038ZM339.629 268.972L416.504 312.868L417.496 311.132L340.621 267.235L339.629 268.972ZM262 163L263.386 161.558L260 158.303V163H262ZM262 192.058H260V192.662L260.334 193.165L262 192.058ZM337.625 305.817L335.959 306.925L336.499 307.736L337.47 307.811L337.625 305.817ZM417 312L416.845 313.994L422.411 314.428L418.386 310.558L417 312ZM279.365 179.693L277.979 181.135L277.979 181.135L279.365 179.693ZM277.618 215.552L275.953 216.659L275.953 216.659L277.618 215.552ZM324.386 222.971L325.772 221.529L325.772 221.529L324.386 222.971ZM260 163V192.058H264V163H260ZM337.47 307.811L416.845 313.994L417.155 310.006L337.78 303.823L337.47 307.811ZM280.751 178.251L263.386 161.558L260.614 164.442L277.979 181.135L280.751 178.251ZM260.334 193.165L275.953 216.659L279.284 214.445L263.666 190.951L260.334 193.165ZM275.953 216.659L335.959 306.925L339.291 304.71L279.284 214.445L275.953 216.659ZM418.386 310.558L325.772 221.529L323 224.413L415.614 313.442L418.386 310.558ZM325.772 221.529L280.751 178.251L277.979 181.135L323 224.413L325.772 221.529Z" fill="#26A061" mask="url(#path-5-inside-3_4_125)"/>
</g>
<g id="Vector 8">
<mask id="path-7-inside-4_4_125" fill="white">
<path fill-rule="evenodd" clip-rule="evenodd" d="M390 343L305.586 359.8L219.31 468.067L248.483 455.622L279.517 415.178L322.345 403.978L310.552 370.378L305.586 359.8L368.897 362.697L390 343Z"/>
<path d="M219.31 468.067L210 511L368.897 362.697L305.586 359.8L310.552 370.378L322.345 403.978L279.517 415.178L248.483 455.622L219.31 468.067Z"/>
</mask>
<path fill-rule="evenodd" clip-rule="evenodd" d="M390 343L305.586 359.8L219.31 468.067L248.483 455.622L279.517 415.178L322.345 403.978L310.552 370.378L305.586 359.8L368.897 362.697L390 343Z" fill="#3CE78E"/>
<path d="M219.31 468.067L210 511L368.897 362.697L305.586 359.8L310.552 370.378L322.345 403.978L279.517 415.178L248.483 455.622L219.31 468.067Z" fill="#3CE78E"/>
<path d="M305.586 359.8L305.632 358.801L304.966 358.771L304.681 359.374L305.586 359.8ZM322.345 403.978L322.598 404.945L323.648 404.671L323.288 403.647L322.345 403.978ZM310.552 370.378L311.495 370.047L311.478 369.999L311.457 369.953L310.552 370.378ZM248.483 455.622L248.875 456.542L249.116 456.439L249.276 456.231L248.483 455.622ZM322.092 403.01L279.264 414.21L279.77 416.145L322.598 404.945L322.092 403.01ZM304.681 360.225L309.646 370.803L311.457 369.953L306.491 359.375L304.681 360.225ZM309.608 370.709L321.401 404.309L323.288 403.647L311.495 370.047L309.608 370.709ZM249.276 456.231L280.311 415.787L278.724 414.569L247.689 455.013L249.276 456.231ZM219.703 468.986L248.875 456.542L248.09 454.702L218.918 467.147L219.703 468.986ZM368.942 361.698L305.632 358.801L305.541 360.799L368.851 363.696L368.942 361.698ZM280.422 415.604L306.491 360.226L304.681 359.374L278.612 414.752L280.422 415.604ZM390 343L391.365 344.462L396.503 339.667L389.61 341.038L390 343ZM305.586 359.8L305.196 357.838L304.478 357.981L304.022 358.554L305.586 359.8ZM219.31 468.067L217.746 466.82L217.455 467.186L217.356 467.643L219.31 468.067ZM210 511L208.045 510.576L206.69 516.825L211.365 512.462L210 511ZM368.897 362.697L367.532 361.234L367.532 361.234L368.897 362.697ZM389.61 341.038L305.196 357.838L305.977 361.762L390.39 344.962L389.61 341.038ZM304.022 358.554L217.746 466.82L220.874 469.313L307.15 361.046L304.022 358.554ZM217.356 467.643L208.045 510.576L211.955 511.424L221.265 468.491L217.356 467.643ZM211.365 512.462L370.261 364.159L367.532 361.234L208.635 509.538L211.365 512.462ZM370.261 364.159L391.365 344.462L388.635 341.538L367.532 361.234L370.261 364.159Z" fill="#26A061" mask="url(#path-7-inside-4_4_125)"/>
</g>
<g id="Vector 5_2">
<mask id="path-9-inside-5_4_125" fill="white">
<path fill-rule="evenodd" clip-rule="evenodd" d="M209.464 105.5L142.472 170L207.368 123.401L184.5 170L301.312 93.5772L207.368 123.401L309.656 47.2886L315.76 13.4265L207.368 123.401L209.464 105.5Z"/>
</mask>
<path fill-rule="evenodd" clip-rule="evenodd" d="M209.464 105.5L142.472 170L207.368 123.401L184.5 170L301.312 93.5772L207.368 123.401L309.656 47.2886L315.76 13.4265L207.368 123.401L209.464 105.5Z" fill="#30C879"/>
<path d="M318 1L318.984 1.1774L319.532 -1.86345L317.306 0.279625L318 1ZM142.472 171H184.5V169H142.472V171ZM302.297 93.7546L310.64 47.466L308.672 47.1112L300.328 93.3998L302.297 93.7546ZM316.744 13.6039L318.984 1.1774L317.016 0.822604L314.776 13.2491L316.744 13.6039ZM317.306 0.279625L208.77 104.78L210.157 106.22L318.694 1.72038L317.306 0.279625ZM142.472 170L141.085 168.559L143.639 171.625L142.472 170ZM184.5 170L182.705 169.119L179.491 175.667L185.595 171.674L184.5 170ZM301.312 93.5772L302.407 95.2508L300.707 91.671L301.312 93.5772ZM309.656 47.2886L310.85 48.8931L311.484 48.4213L311.625 47.6434L309.656 47.2886ZM315.76 13.4265L317.728 13.7813L318.876 7.41624L314.336 12.0225L315.76 13.4265ZM209.464 105.5L211.45 105.733L212.099 100.186L208.076 104.059L209.464 105.5ZM185.595 171.674L302.407 95.2508L300.218 91.9036L183.405 168.326L185.595 171.674ZM186.295 170.881L209.164 124.282L205.573 122.52L182.705 169.119L186.295 170.881ZM206.202 121.776L141.306 168.375L143.639 171.625L208.535 125.025L206.202 121.776ZM308.462 45.6841L206.174 121.796L208.562 125.005L310.85 48.8931L308.462 45.6841ZM207.973 125.307L301.918 95.4835L300.707 91.671L206.763 121.494L207.973 125.307ZM311.625 47.6434L317.728 13.7813L313.792 13.0717L307.688 46.9338L311.625 47.6434ZM314.336 12.0225L205.944 121.997L208.792 124.805L317.184 14.8304L314.336 12.0225ZM208.076 104.059L141.085 168.559L143.859 171.441L210.851 106.941L208.076 104.059ZM209.355 123.633L211.45 105.733L207.477 105.267L205.382 123.168L209.355 123.633Z" fill="#26A061" mask="url(#path-9-inside-5_4_125)"/>
</g>
<g id="Vector 6_2">
<mask id="path-11-inside-6_4_125" fill="white">
<path fill-rule="evenodd" clip-rule="evenodd" d="M192.346 268.859L207.461 303.078L166.713 268.859H192.346ZM143.5 217.5L186.47 209L192.346 268.859L143.5 217.5Z"/>
<path d="M192.346 268.859L255 316.569L207.461 241.949L192.346 268.859Z"/>
<path d="M238.165 328.862L255 343V325.174L243.887 320.872L238.165 328.862Z"/>
</mask>
<path fill-rule="evenodd" clip-rule="evenodd" d="M192.346 268.859L207.461 303.078L166.713 268.859H192.346ZM143.5 217.5L186.47 209L192.346 268.859L143.5 217.5Z" fill="#30C879"/>
<path d="M192.346 268.859L255 316.569L207.461 241.949L192.346 268.859Z" fill="#30C879"/>
<path d="M238.165 328.862L255 343V325.174L243.887 320.872L238.165 328.862Z" fill="#30C879"/>
<path d="M113 223.752L112.799 222.773L110.773 223.188L112.357 224.518L113 223.752ZM143.299 216.52L112.799 222.773L113.201 224.732L143.701 218.48L143.299 216.52ZM112.357 224.518L166.07 269.625L167.356 268.093L113.643 222.987L112.357 224.518ZM206.818 303.844L237.522 329.628L238.808 328.097L208.104 302.312L206.818 303.844ZM256 325.174V316.569H254V325.174H256ZM208.304 241.412L187.313 208.463L185.626 209.537L206.617 242.486L208.304 241.412ZM186.47 209L188.46 208.805L188.245 206.61L186.081 207.038L186.47 209ZM255 343L253.714 344.532L257 347.291V343H255ZM255 316.569L253.788 318.16L256.687 315.494L255 316.569ZM143.5 217.5L143.112 215.538L139.545 216.244L142.051 218.878L143.5 217.5ZM207.461 303.078L206.175 304.61L209.29 302.27L207.461 303.078ZM166.713 268.859V266.859H161.221L165.427 270.391L166.713 268.859ZM238.165 328.862L236.539 327.698L235.461 329.203L236.879 330.394L238.165 328.862ZM243.887 320.872L244.609 319.006L243.163 318.447L242.261 319.707L243.887 320.872ZM255 325.174H257V323.804L255.722 323.309L255 325.174ZM207.461 241.949L209.148 240.874L207.353 238.057L205.717 240.97L207.461 241.949ZM184.479 209.195L190.356 269.054L194.336 268.664L188.46 208.805L184.479 209.195ZM186.081 207.038L143.112 215.538L143.888 219.462L186.858 210.962L186.081 207.038ZM193.795 267.481L144.949 216.122L142.051 218.878L190.897 270.237L193.795 267.481ZM165.427 270.391L206.175 304.61L208.747 301.546L167.999 267.327L165.427 270.391ZM190.517 269.667L205.631 303.886L209.29 302.27L194.175 268.051L190.517 269.667ZM166.713 270.859H192.346V266.859H166.713V270.859ZM256.212 314.978L193.558 267.268L191.134 270.45L253.788 318.16L256.212 314.978ZM236.879 330.394L253.714 344.532L256.286 341.468L239.451 327.331L236.879 330.394ZM239.791 330.027L245.513 322.036L242.261 319.707L236.539 327.698L239.791 330.027ZM257 343V325.174H253V343H257ZM243.165 322.737L254.278 327.039L255.722 323.309L244.609 319.006L243.165 322.737ZM256.687 315.494L209.148 240.874L205.774 243.024L253.313 317.643L256.687 315.494ZM194.09 269.838L209.205 242.928L205.717 240.97L190.602 267.88L194.09 269.838Z" fill="#26A061" mask="url(#path-11-inside-6_4_125)"/>
</g>
<g id="Vector 7_2">
<mask id="path-13-inside-7_4_125" fill="white">
<path fill-rule="evenodd" clip-rule="evenodd" d="M324.386 222.971L279.365 179.693L277.618 215.552L340.125 268.104L337.625 305.817L417 312L340.125 268.104L324.386 222.971Z"/>
</mask>
<path fill-rule="evenodd" clip-rule="evenodd" d="M324.386 222.971L279.365 179.693L277.618 215.552L340.125 268.104L337.625 305.817L417 312L340.125 268.104L324.386 222.971Z" fill="#30C879"/>
<path d="M262 163L262.693 162.279L261 160.652V163H262ZM262 192.058H261V192.36L261.167 192.612L262 192.058ZM277.618 215.552L276.785 216.105L276.785 216.105L277.618 215.552ZM261 163V192.058H263V163H261ZM280.058 178.972L262.693 162.279L261.307 163.721L278.672 180.414L280.058 178.972ZM261.167 192.612L276.785 216.105L278.451 214.998L262.833 191.504L261.167 192.612ZM276.785 216.105L336.792 306.371L338.458 305.264L278.451 214.998L276.785 216.105ZM417.693 311.279L325.079 222.25L323.693 223.692L416.307 312.721L417.693 311.279ZM337.625 305.817L335.629 305.685L335.499 307.658L337.47 307.811L337.625 305.817ZM417 312L416.845 313.994L417.992 310.263L417 312ZM279.365 179.693L280.751 178.251L277.581 175.204L277.368 179.596L279.365 179.693ZM277.618 215.552L275.621 215.455L275.572 216.445L276.331 217.083L277.618 215.552ZM324.386 222.971L326.274 222.312L326.117 221.861L325.772 221.529L324.386 222.971ZM337.47 307.811L416.845 313.994L417.155 310.006L337.78 303.823L337.47 307.811ZM277.368 179.596L275.621 215.455L279.616 215.649L281.363 179.79L277.368 179.596ZM341.412 266.573L278.905 214.021L276.331 217.083L338.838 269.635L341.412 266.573ZM325.772 221.529L280.751 178.251L277.979 181.135L323 224.413L325.772 221.529ZM322.497 223.63L338.237 268.762L342.013 267.445L326.274 222.312L322.497 223.63ZM338.129 267.971L335.629 305.685L339.621 305.95L342.121 268.236L338.129 267.971ZM339.133 269.841L416.008 313.737L417.992 310.263L341.117 266.367L339.133 269.841Z" fill="#26A061" mask="url(#path-13-inside-7_4_125)"/>
</g>
<g id="Vector 8_2">
<mask id="path-15-inside-8_4_125" fill="white">
<path d="M305.586 359.8L310.552 370.378L323.5 405.067L368.897 362.697L305.586 359.8Z"/>
<path fill-rule="evenodd" clip-rule="evenodd" d="M248.483 431.459L305.586 359.8L279.517 415.178L264 435.4L248.483 431.459Z"/>
<path d="M248.483 455.622L252.5 471.333L288 438.2L264 435.4L248.483 455.622Z"/>
</mask>
<path d="M305.586 359.8L310.552 370.378L323.5 405.067L368.897 362.697L305.586 359.8Z" fill="#30C879"/>
<path fill-rule="evenodd" clip-rule="evenodd" d="M248.483 431.459L305.586 359.8L279.517 415.178L264 435.4L248.483 431.459Z" fill="#30C879"/>
<path d="M248.483 455.622L252.5 471.333L288 438.2L264 435.4L248.483 455.622Z" fill="#30C879"/>
<path d="M390 343L390.682 343.731L393.251 341.333L389.805 342.019L390 343ZM219.31 468.067L218.528 467.443L218.383 467.626L218.333 467.855L219.31 468.067ZM210 511L209.023 510.788L208.345 513.912L210.682 511.731L210 511ZM323.5 405.067L324.182 405.798L326.903 403.258L323.276 404.092L323.5 405.067ZM368.897 362.697L368.214 361.965L368.214 361.965L368.897 362.697ZM389.805 342.019L305.391 358.819L305.781 360.781L390.195 343.981L389.805 342.019ZM218.333 467.855L209.023 510.788L210.977 511.212L220.288 468.279L218.333 467.855ZM323.276 404.092L279.293 414.203L279.741 416.152L323.724 406.041L323.276 404.092ZM219.703 468.986L248.875 456.542L248.09 454.702L218.918 467.147L219.703 468.986ZM369.579 363.428L390.682 343.731L389.318 342.269L368.214 361.965L369.579 363.428ZM210.682 511.731L253.182 472.064L251.818 470.602L209.318 510.269L210.682 511.731ZM247.701 430.835L218.528 467.443L220.092 468.69L249.265 432.082L247.701 430.835ZM322.818 404.336L287.318 437.469L288.682 438.931L324.182 405.798L322.818 404.336ZM288.682 438.931L369.579 363.428L368.214 361.965L287.318 437.469L288.682 438.931ZM305.586 359.8L305.678 357.802L304.658 357.755L304.022 358.554L305.586 359.8ZM323.5 405.067L321.626 405.766L322.674 408.573L324.865 406.529L323.5 405.067ZM279.517 415.178L281.104 416.395L281.235 416.224L281.327 416.03L279.517 415.178ZM310.552 370.378L312.425 369.678L312.397 369.602L312.362 369.528L310.552 370.378ZM248.483 455.622L246.896 454.405L246.304 455.176L246.545 456.118L248.483 455.622ZM368.897 362.697L370.261 364.159L373.736 360.916L368.988 360.699L368.897 362.697ZM252.5 471.333L250.562 471.829L251.398 475.098L253.865 472.795L252.5 471.333ZM248.483 431.459L246.919 430.212L244.988 432.634L247.99 433.397L248.483 431.459ZM288 438.2L289.365 439.662L292.523 436.714L288.232 436.213L288 438.2ZM303.776 360.65L308.741 371.228L312.362 369.528L307.397 358.95L303.776 360.65ZM308.678 371.077L321.626 405.766L325.374 404.367L312.425 369.678L308.678 371.077ZM368.988 360.699L305.678 357.802L305.495 361.798L368.805 364.694L368.988 360.699ZM281.327 416.03L307.396 360.652L303.777 358.948L277.708 414.326L281.327 416.03ZM246.545 456.118L250.562 471.829L254.438 470.838L250.42 455.127L246.545 456.118ZM367.532 361.234L322.135 403.605L324.865 406.529L370.261 364.159L367.532 361.234ZM304.022 358.554L246.919 430.212L250.047 432.705L307.15 361.046L304.022 358.554ZM250.069 456.84L265.587 436.618L262.413 434.182L246.896 454.405L250.069 456.84ZM265.587 436.618L281.104 416.395L277.931 413.96L262.413 434.182L265.587 436.618ZM247.99 433.397L263.508 437.338L264.492 433.462L248.975 429.52L247.99 433.397ZM286.635 436.738L251.135 469.871L253.865 472.795L289.365 439.662L286.635 436.738ZM263.768 437.387L287.768 440.187L288.232 436.213L264.232 433.413L263.768 437.387Z" fill="#26A061" mask="url(#path-15-inside-8_4_125)"/>
</g>
</g>
</g>
</svg>
